<svg width="217" height="46" viewBox="0 0 217 46" fill="none" xmlns="http://www.w3.org/2000/svg">
  <path d="M22.9997 0C35.7026 0 45.9997 10.2971 45.9997 23V39.1C45.9997 40.93 45.2728 42.685 43.9788 43.979C42.6848 45.273 40.9297 46 39.0997 46H24.1497V35.9099C24.1497 33.6076 24.29 31.2225 25.4975 29.2629C26.362 27.8586 27.5185 26.6566 28.8884 25.7385C30.2583 24.8204 31.8096 24.2077 33.4371 23.9419L33.8776 23.8706C34.0592 23.8085 34.2168 23.6912 34.3284 23.5351C34.44 23.379 34.5 23.1919 34.5 23C34.5 22.8081 34.44 22.621 34.3284 22.4649C34.2168 22.3088 34.0592 22.1915 33.8776 22.1294L33.4371 22.0581C31.0591 21.6697 28.8632 20.5441 27.1594 18.8403C25.4556 17.1365 24.3301 14.9406 23.9416 12.5626L23.8703 12.1222C23.8082 11.9406 23.6909 11.7829 23.5348 11.6713C23.3787 11.5597 23.1916 11.4997 22.9997 11.4997C22.8078 11.4997 22.6208 11.5597 22.4647 11.6713C22.3086 11.7829 22.1913 11.9406 22.1292 12.1222L22.0579 12.5626C21.7922 14.1902 21.1795 15.7415 20.2614 17.1114C19.3433 18.4814 18.1412 19.6378 16.7368 20.5022C14.7772 21.7097 12.3921 21.85 10.0898 21.85H0.0273438C0.628794 9.68185 10.6832 0 22.9997 0Z" fill="#0F4C75"/>
  <path d="M46 2.3C46 2.91 45.7577 3.49501 45.3263 3.92635C44.895 4.35768 44.31 4.6 43.7 4.6C43.09 4.6 42.505 4.35768 42.0737 3.92635C41.6423 3.49501 41.4 2.91 41.4 2.3C41.4 1.69 41.6423 1.10499 42.0737 0.673654C42.505 0.242321 43.09 0 43.7 0C44.31 0 44.895 0.242321 45.3263 0.673654C45.7577 1.10499 46 1.69 46 2.3Z" fill="#0F4C75"/>
  <path d="M62.848 28.126V24.352H68.39C69.1153 24.352 69.7727 24.2047 70.362 23.91C70.9513 23.6153 71.416 23.196 71.756 22.652C72.096 22.0853 72.266 21.4053 72.266 20.612C72.266 19.8413 72.096 19.1727 71.756 18.606C71.416 18.0393 70.9513 17.6087 70.362 17.314C69.7727 17.0193 69.1153 16.872 68.39 16.872H62.848V13.098H68.866C70.3847 13.098 71.7447 13.404 72.946 14.016C74.17 14.628 75.1333 15.5007 75.836 16.634C76.5387 17.7447 76.89 19.0707 76.89 20.612C76.89 22.1533 76.5387 23.4907 75.836 24.624C75.1333 25.7347 74.17 26.596 72.946 27.208C71.7447 27.82 70.3847 28.126 68.866 28.126H62.848ZM59.448 37V13.098H64.072V37H59.448ZM79.9232 37V20.578H84.3772V37H79.9232ZM84.3772 27.922L82.6432 26.766C82.8472 24.7487 83.4365 23.162 84.4112 22.006C85.3858 20.8273 86.7912 20.238 88.6272 20.238C89.4205 20.238 90.1345 20.374 90.7692 20.646C91.4038 20.8953 91.9818 21.3147 92.5032 21.904L89.7152 25.1C89.4658 24.828 89.1598 24.624 88.7972 24.488C88.4572 24.352 88.0605 24.284 87.6072 24.284C86.6552 24.284 85.8732 24.59 85.2612 25.202C84.6718 25.7913 84.3772 26.698 84.3772 27.922ZM101.457 37.34C99.7342 37.34 98.2042 36.9773 96.8669 36.252C95.5295 35.504 94.4642 34.484 93.6709 33.192C92.9002 31.9 92.5149 30.4267 92.5149 28.772C92.5149 27.14 92.8889 25.6893 93.6369 24.42C94.4075 23.128 95.4502 22.108 96.7649 21.36C98.0795 20.5893 99.5415 20.204 101.151 20.204C102.738 20.204 104.132 20.5667 105.333 21.292C106.557 21.9947 107.509 22.9693 108.189 24.216C108.892 25.44 109.243 26.834 109.243 28.398C109.243 28.6927 109.22 28.9987 109.175 29.316C109.152 29.6107 109.096 29.9507 109.005 30.336L104.885 29.33C105.004 29.0107 105.069 28.666 105.069 28.298C105.069 27.4587 104.635 26.6907 103.743 26.101C102.842 25.512 101.557 25.217 100.064 25.217C98.5523 25.217 97.2265 25.5207 96.0809 26.128C94.9353 26.7353 94.0724 27.674 93.4482 28.944C92.8718 30.188 92.5722 31.437 92.5722 32.641C92.5722 34.635 93.1242 36.265 94.2602 37.505C95.378 38.7037 96.8328 39.302 98.626 39.302C99.764 39.302 100.773 39.0247 101.66 38.438C102.547 37.8513 103.213 37.09 103.657 36.078C104.07 35.1213 104.203 34.0857 104.203 33.0203C104.203 32.258 104.166 31.5533 104.089 30.885C104.013 30.217 103.902 29.607 103.757 29.064L107.617 27.49C108.264 28.675 108.644 29.972 108.644 31.24C108.644 33.249 107.987 35.139 106.68 36.3C105.375 37.461 103.634 37.995 101.457 37.995V37.34Z" fill="#0F4C75"/>
</svg>
